<svg xmlns="http://www.w3.org/2000/svg" width="52.642" height="47.856" viewBox="0 0 52.642 47.856">
  <path id="Icon_material-live-tv" data-name="Icon material-live-tv" d="M49.356,12.571H31.195L39.067,4.7,37.392,3l-9.571,9.571L18.25,3l-1.7,1.7,7.9,7.872H6.286A4.784,4.784,0,0,0,1.5,17.357V46.07a4.8,4.8,0,0,0,4.786,4.786h43.07a4.8,4.8,0,0,0,4.786-4.786V17.357A4.784,4.784,0,0,0,49.356,12.571Zm0,33.5H6.286V17.357h43.07ZM20.642,22.142V41.285l16.75-9.571Z" transform="translate(-1.5 -3)" fill="#fff"/>
</svg>
