<svg xmlns="http://www.w3.org/2000/svg" width="25" height="25" viewBox="0 0 20.558 18.689">
  <path id="Icon_material-live-tv" data-name="Icon material-live-tv" d="M20.189,6.738H13.1l3.074-3.074L15.517,3,11.779,6.738,8.041,3l-.663.663,3.084,3.074H3.369A1.868,1.868,0,0,0,1.5,8.607V19.82a1.874,1.874,0,0,0,1.869,1.869h16.82a1.874,1.874,0,0,0,1.869-1.869V8.607A1.868,1.868,0,0,0,20.189,6.738Zm0,13.082H3.369V8.607h16.82ZM8.976,10.476v7.476l6.541-3.738Z" transform="translate(-1.5 -3)" fill="#fff"/>
</svg>
