<svg xmlns="http://www.w3.org/2000/svg" width="63.999" height="72.847" viewBox="0 0 63.999 72.847">
  <path id="Icon_awesome-hand-pointer" data-name="Icon awesome-hand-pointer" d="M61.991,33.21V46.493a5.533,5.533,0,0,1-.147,1.268L57.416,66.58a5.535,5.535,0,0,1-5.388,4.267H23.247a5.535,5.535,0,0,1-4.476-2.279L1.059,44.214A5.535,5.535,0,1,1,10.012,37.7l4.379,6.022V5.535a5.535,5.535,0,1,1,11.07,0V33.21h1.107V27.675a5.535,5.535,0,0,1,11.07,0V33.21h1.107V29.889a5.535,5.535,0,1,1,11.07,0V33.21h1.107a5.535,5.535,0,1,1,11.07,0ZM26.568,44.279H25.461V57.563h1.107Zm12.177,0H37.638V57.563h1.107Zm12.177,0H49.814V57.563h1.107Z" transform="translate(1.008 1)" fill="#fff" stroke="#df00ff" stroke-width="2"/>
</svg>
